<?xml version="1.0" encoding="UTF-8" standalone="no"?><!DOCTYPE svg PUBLIC "-//W3C//DTD SVG 1.1//EN" "http://www.w3.org/Graphics/SVG/1.1/DTD/svg11.dtd"><svg width="100%" height="100%" viewBox="0 0 2363 2363" version="1.1" xmlns="http://www.w3.org/2000/svg" xmlns:xlink="http://www.w3.org/1999/xlink" xml:space="preserve" xmlns:serif="http://www.serif.com/" style="fill-rule:evenodd;clip-rule:evenodd;stroke-linejoin:round;stroke-miterlimit:2;"><rect x="0" y="0" width="2362.2" height="2362.2" style="fill:none;"/><path d="M1960.26,627.543c-1.03,-0.692 -2.301,-1.594 -3.184,-2.377c-5.5,-4.877 -11.05,-11.922 -16.661,-20.064c-19.726,-28.629 -38.822,-69.867 -50.82,-95.607c-5.384,-11.55 -19.133,-16.556 -30.683,-11.172c-11.55,5.384 -16.556,19.133 -11.172,30.683c15.164,32.531 41.231,87.672 66.151,117.582c16.003,19.208 33.608,28.51 47.785,28.06c13.974,-0.445 31.105,-10.732 46.352,-30.652c24.039,-31.404 48.522,-88.042 62.763,-121.441c4.998,-11.723 -0.461,-25.298 -12.183,-30.296c-11.722,-4.998 -25.297,0.461 -30.296,12.184c-11.308,26.522 -29.304,69.005 -48.267,98.909c-5.445,8.587 -10.867,16.055 -16.29,21.336c-0.983,0.957 -2.391,2.047 -3.495,2.855Z" style="fill:#757575;"/><path d="M1686.84,887.515c20.292,-92.595 43.627,-186.057 65.913,-237.455c10.57,-24.379 35.977,-42.976 60.546,-59.804c30.751,-21.064 60.904,-39.631 73.946,-57.287c11.373,-15.398 17.751,-38.687 17.612,-59.652c-0.103,-15.63 -3.897,-29.858 -10.142,-39.548c-6.903,-10.712 -21.204,-13.804 -31.916,-6.901c-10.712,6.903 -13.804,21.204 -6.901,31.916c2.309,3.583 2.743,9.059 2.781,14.838c0.074,11.138 -2.537,23.73 -8.579,31.91c-10.916,14.779 -37.158,28.995 -62.897,46.625c-31.922,21.866 -63.084,47.858 -76.818,79.533c-23.091,53.256 -47.628,149.997 -68.654,245.939c-2.728,12.448 5.164,24.769 17.612,27.497c12.448,2.728 24.769,-5.163 27.497,-17.611Z" style="fill:#757575;"/><path d="M1826.94,425.34c6.103,-24.411 -0.487,-86.427 12.686,-144.622c11.152,-49.27 38.753,-95.672 111.098,-103.38c12.146,-1.294 11.335,-0.537 21.469,0.086c72.047,4.432 99.289,50.638 110.286,100.325c13.101,59.192 6.362,123.164 12.469,147.591c3.091,12.363 15.637,19.891 28,16.8c12.363,-3.091 19.891,-15.637 16.8,-28c-6.056,-24.223 0.81,-87.674 -12.182,-146.37c-15.095,-68.204 -53.639,-130.354 -152.538,-136.438c-13.781,-0.847 -12.679,-1.673 -29.196,0.087c-97.96,10.438 -136.145,72.391 -151.246,139.104c-13.079,57.786 -6.386,119.378 -12.446,143.617c-3.09,12.363 4.437,24.909 16.8,28c12.363,3.091 24.91,-4.437 28,-16.8Z" style="fill:#757575;"/><path d="M2027.18,433.769c-6.245,9.69 -10.039,23.918 -10.143,39.548c-0.138,20.965 6.239,44.254 17.613,59.652c13.041,17.656 43.195,36.223 73.946,57.287c24.568,16.828 49.975,35.425 60.546,59.804c22.285,51.398 45.62,144.86 65.913,237.455c2.728,12.448 15.049,20.339 27.497,17.611c12.448,-2.728 20.339,-15.049 17.611,-27.497c-21.026,-95.942 -45.562,-192.683 -68.654,-245.939c-13.734,-31.675 -44.895,-57.667 -76.817,-79.533c-25.739,-17.63 -51.982,-31.846 -62.898,-46.625c-6.042,-8.18 -8.652,-20.772 -8.579,-31.91c0.038,-5.779 0.472,-11.255 2.781,-14.838c6.903,-10.712 3.811,-25.013 -6.901,-31.916c-10.711,-6.903 -25.012,-3.811 -31.915,6.901Z" style="fill:#757575;"/><path d="M1785.62,342.72c-8.143,79.146 -16.287,158.293 -24.431,237.44c-1.312,12.758 7.98,24.181 20.738,25.494c12.757,1.312 24.181,-7.98 25.494,-20.737c8.143,-79.147 16.287,-158.294 24.43,-237.441c1.313,-12.757 -7.979,-24.181 -20.737,-25.494c-12.758,-1.312 -24.181,7.98 -25.494,20.738Z" style="fill:#757575;"/><path d="M2090.47,347.476c8.143,79.147 16.287,158.294 24.431,237.441c1.312,12.757 12.736,22.049 25.494,20.737c12.757,-1.313 22.049,-12.736 20.737,-25.494c-8.144,-79.147 -16.288,-158.294 -24.431,-237.44c-1.313,-12.758 -12.736,-22.05 -25.494,-20.738c-12.758,1.313 -22.05,12.737 -20.737,25.494Z" style="fill:#757575;"/><path d="M2020.92,438.894c-16.645,24.417 -37.748,40.61 -61.809,40.61c-22.537,-0 -42.514,-14.303 -58.651,-36.158c-7.618,-10.317 -22.18,-12.509 -32.497,-4.891c-10.318,7.619 -12.509,22.18 -4.891,32.497c25.923,35.109 59.834,55.027 96.039,55.027c38.153,0 73.817,-22.19 100.21,-60.907c7.224,-10.598 4.485,-25.066 -6.112,-32.29c-10.597,-7.224 -25.065,-4.485 -32.289,6.112Z" style="fill:#757575;"/><circle cx="1815.25" cy="429.887" r="23.486" style="fill:#345996;"/><circle cx="2102.98" cy="429.887" r="23.486" style="fill:#345996;"/><path d="M393.233,902.853l104.412,0l-39.284,-262.839l42.135,-42.135l-56.943,-56.943l-56.943,56.943l43.042,43.041l-36.419,261.933Z" style="fill:#345996;"/><path d="M1543.42,882.572l-0,-531.162c-0,-12.834 -10.404,-23.237 -23.238,-23.237l-614.113,-0c-12.833,-0 -23.237,10.403 -23.237,23.237l-0,531.162c-0,12.825 10.412,23.238 23.237,23.238c12.825,-0 23.238,-10.413 23.238,-23.238l-0,-507.924c-0,-0 567.638,-0 567.638,-0c-0,-0 -0,507.924 -0,507.924c-0,12.825 10.412,23.238 23.237,23.238c12.825,-0 23.238,-10.413 23.238,-23.238Z" style="fill:#757575;"/><path d="M340.701,467.837c0.809,5.366 -0.678,11.783 -2.932,18.359c-4.364,12.732 -12.368,25.81 -21.637,34.352c-16.897,15.573 -53.901,28.071 -89.637,45.453c-43.406,21.113 -84.52,48.678 -100.682,87.812c-20.765,50.283 -31.733,138.51 -37.187,227.344c-0.781,12.72 8.911,23.68 21.631,24.461c12.719,0.781 23.68,-8.911 24.461,-21.631c5.095,-82.991 14.378,-165.571 33.778,-212.547c12.217,-29.584 45.385,-47.951 78.198,-63.912c40.477,-19.689 81.595,-35.384 100.734,-53.023c25.178,-23.205 43.606,-67.253 38.68,-95.161c-2.447,-13.862 -12.574,-26.221 -26.874,-37.007c-6.519,-4.917 -13.912,-9.705 -20.387,-15.049c-3.683,-3.04 -7.276,-6.022 -8.937,-10.026c-10.782,-25.987 -6.896,-68.506 -11.902,-101.719c-2.781,-18.451 -11.396,-37.665 -17.587,-56.397c-3.824,-11.569 -7.58,-22.804 -2.641,-33.217c4.888,-10.303 17.97,-21.098 32.163,-31.952c26.355,-20.156 57.686,-38.622 70.035,-48.036c0.533,-0.407 1.061,-0.991 1.731,-1.027c20.996,-1.136 77.906,-10.602 118.988,-9.019c0.997,5.86 2.338,12.738 3.52,15.559c3.502,8.36 9.32,12.711 14.67,14.81c3.413,1.34 8.963,2.536 15.682,3.18c6.803,0.652 20.59,2.033 25.305,2.507c4.961,6.208 5.47,10.989 6.324,17.445c0.778,5.887 1.646,12.57 3.551,20.792c7.24,31.241 -6.333,71.99 -9.886,106.426c-3.467,33.6 -1.098,74.935 -11.766,100.648c-1.661,4.004 -5.254,6.986 -8.937,10.026c-6.475,5.344 -13.868,10.132 -20.387,15.049c-14.3,10.786 -24.427,23.145 -26.874,37.007c-4.926,27.908 13.502,71.956 38.68,95.161c19.139,17.639 60.257,33.334 100.734,53.023c32.813,15.961 65.981,34.328 78.198,63.912c19.4,46.976 28.683,129.556 33.778,212.547c0.781,12.72 11.742,22.412 24.461,21.631c12.72,-0.781 22.412,-11.741 21.631,-24.461c-5.454,-88.834 -16.422,-177.061 -37.187,-227.344c-16.162,-39.134 -57.276,-66.699 -100.682,-87.812c-35.736,-17.382 -72.74,-29.88 -89.637,-45.453c-9.269,-8.542 -17.273,-21.62 -21.637,-34.352c-2.254,-6.576 -3.741,-12.993 -2.932,-18.359c0.452,-0.552 2.65,-3.188 4.2,-4.55c3.436,-3.02 7.47,-5.884 11.589,-8.822c15.552,-11.095 31.069,-23.629 37.656,-39.507c12.064,-29.079 11.126,-75.607 15.047,-113.604c4.053,-39.28 17.196,-85.955 8.938,-121.591c-2.113,-9.117 -2.605,-15.972 -3.544,-21.998c-2.173,-13.952 -5.565,-25.134 -20.762,-40.926c-4.274,-4.441 -12.816,-9.008 -24.232,-10.842c-5.393,-0.866 -13.796,-1.672 -20.574,-2.238c-0.317,-2.075 -0.652,-4.075 -0.957,-5.611c-1.078,-5.43 -2.784,-10.09 -4.703,-13.416c-4.993,-8.653 -12.249,-12.719 -20.119,-13.665c-43.423,-5.219 -115.78,6.391 -140.631,7.735c-9.704,0.525 -19.503,4.522 -27.231,10.414c-12.36,9.421 -43.715,27.906 -70.093,48.079c-20.968,16.036 -38.611,33.62 -45.832,48.841c-8.323,17.545 -7.98,36.276 -3.024,55.56c5.147,20.03 16.305,40.783 19.311,60.729c5.549,36.815 2.961,83.728 14.911,112.533c6.587,15.878 22.104,28.412 37.656,39.507c4.119,2.938 8.153,5.802 11.589,8.822c1.55,1.362 3.748,3.998 4.2,4.55Z" style="fill:#757575;"/><text x="46.857px" y="1637.67px" style="font-family:'BebasNeue-Bold', 'Bebas Neue';font-weight:700;font-size:919.161px;fill:#345996;">LITCART</text><g transform="matrix(0.87923,0,0,1,-1476.03,-1.81899e-12)"><text x="1767.51px" y="2266.09px" style="font-family:'BebasNeue-Bold', 'Bebas Neue';font-weight:700;font-size:768.441px;fill:#757575;">aSSISTANT</text></g><g transform="matrix(0.87923,0,0,1,-437.744,9.09495e-13)"><text x="1615.43px" y="736.638px" style="font-family:'Corbel-Bold', 'Corbel', sans-serif;font-weight:700;font-size:395.124px;fill:#345996;">JW</text></g></svg>